<svg width="80" height="80" viewBox="0 0 80 80" fill="none" xmlns="http://www.w3.org/2000/svg">
  <defs>
    <linearGradient id="crystal" x1="20" y1="12" x2="61" y2="69" gradientUnits="userSpaceOnUse">
      <stop stop-color="#73F4FF"/>
      <stop offset="0.52" stop-color="#20CFE3"/>
      <stop offset="1" stop-color="#0B789A"/>
    </linearGradient>
    <linearGradient id="edge" x1="17" y1="15" x2="66" y2="64" gradientUnits="userSpaceOnUse">
      <stop stop-color="#D8FBFF"/>
      <stop offset="1" stop-color="#38BBD0"/>
    </linearGradient>
    <filter id="glow" x="5" y="3" width="70" height="75" filterUnits="userSpaceOnUse" color-interpolation-filters="sRGB">
      <feGaussianBlur stdDeviation="3"/>
    </filter>
  </defs>
  <path d="M40 7L64 22L60 58L40 73L20 58L16 22L40 7Z" fill="#1CD7E5" opacity=".28" filter="url(#glow)"/>
  <path d="M40 8L63 22L59 57L40 72L21 57L17 22L40 8Z" fill="url(#crystal)" stroke="url(#edge)" stroke-width="2"/>
  <path d="M40 8L40 72L21 57L17 22L40 8Z" fill="#0C91AD" opacity=".56"/>
  <path d="M40 8L63 22L59 57L40 72V8Z" fill="#5CEAF1" opacity=".23"/>
  <path d="M17 22L40 30L63 22M40 30V72" stroke="#B8F8FC" stroke-opacity=".48" stroke-width="1.5"/>
  <ellipse cx="40" cy="47.5" rx="10.5" ry="8.5" fill="#071522"/>
  <ellipse cx="27.8" cy="38" rx="4.2" ry="5.1" transform="rotate(-24 27.8 38)" fill="#071522"/>
  <ellipse cx="37" cy="33" rx="4.2" ry="5.2" transform="rotate(-6 37 33)" fill="#071522"/>
  <ellipse cx="47.2" cy="34" rx="4.2" ry="5.2" transform="rotate(10 47.2 34)" fill="#071522"/>
  <ellipse cx="55.2" cy="40" rx="4.2" ry="5" transform="rotate(27 55.2 40)" fill="#071522"/>
  <path d="M35 48.5C36.8 45.5 43.3 45.5 45 48.5" stroke="#E8C46C" stroke-width="2" stroke-linecap="round"/>
</svg>
